<svg width="256" height="256" viewBox="0 0 256 256" fill="none" xmlns="http://www.w3.org/2000/svg"><path d="M183.186 31.0332H144.922C139.643 31.1516 137.638 32.343 136.246 36.7378L91.1828 163.8L46.2068 36.9848C44.8265 32.5646 43.0153 31.3177 38.2374 31.0332H6.70344C-0.793686 31.0332 -0.793862 35.5793 0.95045 43.0843L63.4142 219.21C65.2256 223.614 67.1403 225.01 72.5364 225H109.741C114.603 224.652 116.988 223.569 118.749 219.781L163.985 92.2331L195.106 179.983L165.589 179.984C159.967 179.984 156.731 195.228 150.036 217.526C148.63 222.567 149.657 225 156.095 225L246.515 225C255.622 225 257.622 222.474 254.835 212.935L242.798 180.751L192.039 37.6312C190.075 31.9354 188.012 30.7748 183.186 31.0332Z" fill="white"/></svg>